<svg width="167" height="43" viewBox="0 0 167 43" fill="none" xmlns="http://www.w3.org/2000/svg">
<path fill-rule="evenodd" clip-rule="evenodd" d="M14.6419 14.4717C16.7311 15.6779 19.575 14.6632 20.9941 12.2054C22.4131 9.74755 21.8698 6.77729 19.7807 5.57111C17.6915 4.36494 14.8476 5.3796 13.4286 7.83743C12.0095 10.2953 12.5528 13.2655 14.6419 14.4717ZM9.14346 14.7637C8.03616 16.6816 5.81698 17.4734 4.18677 16.5322C2.55656 15.591 2.13266 13.2732 3.23995 11.3553C4.34725 9.43743 6.56643 8.64566 8.19664 9.58687C9.82685 10.5281 10.2508 12.8458 9.14346 14.7637ZM33.383 27.501C32.2757 29.4189 30.0565 30.2107 28.4263 29.2695C26.7961 28.3283 26.3722 26.0105 27.4795 24.0927C28.5868 22.1748 30.806 21.383 32.4362 22.3242C34.0664 23.2654 34.4903 25.5832 33.383 27.501ZM31.2237 17.6435C29.7735 20.1552 26.8673 21.1921 24.7323 19.9595C22.5973 18.7269 22.0422 15.6915 23.4923 13.1798C24.9425 10.6681 27.8488 9.63116 29.9837 10.8638C32.1187 12.0964 32.6738 15.1318 31.2237 17.6435ZM7.80976 34.772C7.4624 34.8272 7.10619 34.8559 6.7433 34.8559C3.01908 34.8559 0 31.8368 0 28.1126C0 24.3883 3.01908 21.3693 6.7433 21.3693C7.3966 21.3693 8.0282 21.4622 8.62562 21.6355C9.89281 19.6721 12.0998 18.3722 14.6105 18.3722C18.5416 18.3722 21.7284 21.559 21.7284 25.4902C21.7284 26.5004 21.5179 27.4615 21.1384 28.332C21.9827 29.5446 22.4776 31.0186 22.4776 32.6081C22.4776 36.7461 19.1231 40.1006 14.9851 40.1006C11.5994 40.1006 8.73825 37.855 7.80976 34.772Z" fill="white"/>
<path d="M47.6878 4.96H51.0478L57.3118 22H53.9038L52.3198 17.752H46.3678L44.8078 22H41.3998L47.6878 4.96ZM51.7198 15.424L49.3678 8.392L46.9198 15.424H51.7198ZM64.9408 22V4.96H71.1328C72.9888 4.96 74.5408 5.344 75.7888 6.112C77.0368 6.864 77.9728 7.888 78.5968 9.184C79.2208 10.464 79.5328 11.888 79.5328 13.456C79.5328 15.184 79.1888 16.688 78.5008 17.968C77.8128 19.248 76.8368 20.24 75.5728 20.944C74.3088 21.648 72.8288 22 71.1328 22H64.9408ZM76.1968 13.456C76.1968 12.352 75.9968 11.384 75.5968 10.552C75.1968 9.704 74.6208 9.048 73.8688 8.584C73.1168 8.104 72.2048 7.864 71.1328 7.864H68.2528V19.096H71.1328C72.2208 19.096 73.1408 18.856 73.8928 18.376C74.6448 17.88 75.2128 17.208 75.5968 16.36C75.9968 15.496 76.1968 14.528 76.1968 13.456ZM95.1525 22.12C93.9045 22.12 92.7685 21.88 91.7445 21.4C90.7365 20.92 89.8645 20.272 89.1285 19.456C88.4085 18.624 87.8485 17.696 87.4485 16.672C87.0485 15.632 86.8485 14.568 86.8485 13.48C86.8485 12.344 87.0565 11.264 87.4725 10.24C87.8885 9.2 88.4725 8.28 89.2245 7.48C89.9765 6.664 90.8565 6.024 91.8645 5.56C92.8885 5.08 94.0085 4.84 95.2245 4.84C96.4565 4.84 97.5765 5.088 98.5845 5.584C99.6085 6.08 100.48 6.744 101.2 7.576C101.936 8.408 102.496 9.344 102.88 10.384C103.28 11.408 103.48 12.456 103.48 13.528C103.48 14.648 103.272 15.728 102.856 16.768C102.44 17.792 101.856 18.712 101.104 19.528C100.368 20.328 99.4885 20.96 98.4645 21.424C97.4565 21.888 96.3525 22.12 95.1525 22.12ZM90.2085 13.48C90.2085 14.472 90.4005 15.4 90.7845 16.264C91.1845 17.128 91.7525 17.832 92.4885 18.376C93.2405 18.92 94.1365 19.192 95.1765 19.192C96.2485 19.192 97.1525 18.912 97.8885 18.352C98.6245 17.792 99.1845 17.072 99.5685 16.192C99.9525 15.312 100.144 14.408 100.144 13.48C100.144 12.488 99.9445 11.56 99.5445 10.696C99.1445 9.832 98.5685 9.136 97.8165 8.608C97.0805 8.064 96.2005 7.792 95.1765 7.792C94.1045 7.792 93.2005 8.072 92.4645 8.632C91.7285 9.192 91.1685 9.912 90.7845 10.792C90.4005 11.656 90.2085 12.552 90.2085 13.48ZM111.781 22V4.96H119.005C119.789 4.96 120.509 5.12 121.165 5.44C121.837 5.76 122.413 6.192 122.893 6.736C123.373 7.28 123.749 7.888 124.021 8.56C124.293 9.232 124.429 9.92 124.429 10.624C124.429 11.584 124.205 12.496 123.757 13.36C123.309 14.224 122.685 14.928 121.885 15.472C121.101 16.016 120.181 16.288 119.125 16.288H115.093V22H111.781ZM115.093 13.384H118.933C119.541 13.384 120.045 13.136 120.445 12.64C120.861 12.128 121.069 11.456 121.069 10.624C121.069 9.744 120.837 9.064 120.373 8.584C119.909 8.104 119.381 7.864 118.789 7.864H115.093V13.384ZM145.238 7.864H139.79V22H136.502V7.864H131.054V4.96H145.238V7.864ZM163.266 9.424C163.122 9.264 162.818 9.056 162.354 8.8C161.89 8.528 161.33 8.288 160.674 8.08C160.034 7.856 159.37 7.744 158.682 7.744C156.874 7.744 155.97 8.384 155.97 9.664C155.97 10.128 156.114 10.496 156.402 10.768C156.69 11.04 157.122 11.272 157.698 11.464C158.274 11.656 158.994 11.864 159.858 12.088C160.978 12.376 161.946 12.712 162.762 13.096C163.594 13.48 164.226 13.992 164.658 14.632C165.106 15.256 165.33 16.088 165.33 17.128C165.33 18.344 165.034 19.328 164.442 20.08C163.866 20.816 163.098 21.352 162.138 21.688C161.178 22.024 160.138 22.192 159.018 22.192C157.738 22.192 156.466 22 155.202 21.616C153.954 21.216 152.842 20.672 151.866 19.984L153.33 17.128C153.474 17.272 153.73 17.464 154.098 17.704C154.466 17.928 154.914 18.16 155.442 18.4C155.97 18.624 156.546 18.816 157.17 18.976C157.794 19.136 158.426 19.216 159.066 19.216C160.89 19.216 161.802 18.632 161.802 17.464C161.802 16.968 161.618 16.568 161.25 16.264C160.882 15.96 160.362 15.704 159.69 15.496C159.034 15.288 158.266 15.056 157.386 14.8C156.298 14.496 155.394 14.16 154.674 13.792C153.97 13.408 153.442 12.936 153.09 12.376C152.738 11.8 152.562 11.072 152.562 10.192C152.562 9.024 152.834 8.048 153.378 7.264C153.938 6.464 154.69 5.864 155.634 5.464C156.578 5.048 157.626 4.84 158.778 4.84C159.962 4.84 161.066 5.032 162.09 5.416C163.114 5.8 163.994 6.24 164.73 6.736L163.266 9.424Z" fill="white"/>
<path d="M45.908 31.48H46.616L50.156 40H49.268L48.164 37.336H44.336L43.244 40H42.344L45.908 31.48ZM47.972 36.676L46.256 32.464L44.516 36.676H47.972ZM52.5774 40V31.48H55.4694C56.3734 31.48 57.1254 31.672 57.7254 32.056C58.3334 32.432 58.7894 32.944 59.0934 33.592C59.3974 34.232 59.5494 34.944 59.5494 35.728C59.5494 36.592 59.3814 37.344 59.0454 37.984C58.7094 38.624 58.2374 39.12 57.6294 39.472C57.0214 39.824 56.3014 40 55.4694 40H52.5774ZM58.7094 35.728C58.7094 35.048 58.5814 34.444 58.3254 33.916C58.0774 33.388 57.7094 32.976 57.2214 32.68C56.7414 32.376 56.1574 32.224 55.4694 32.224H53.4174V39.256H55.4694C56.1734 39.256 56.7654 39.1 57.2454 38.788C57.7254 38.476 58.0894 38.056 58.3374 37.528C58.5854 37 58.7094 36.4 58.7094 35.728ZM65.7875 40.06C65.1875 40.06 64.6435 39.94 64.1555 39.7C63.6675 39.452 63.2475 39.124 62.8955 38.716C62.5435 38.308 62.2715 37.848 62.0795 37.336C61.8875 36.816 61.7915 36.284 61.7915 35.74C61.7915 35.172 61.8915 34.632 62.0915 34.12C62.2915 33.6 62.5715 33.14 62.9315 32.74C63.2995 32.332 63.7275 32.012 64.2155 31.78C64.7035 31.54 65.2315 31.42 65.7995 31.42C66.3915 31.42 66.9315 31.544 67.4195 31.792C67.9075 32.04 68.3275 32.372 68.6795 32.788C69.0395 33.204 69.3115 33.668 69.4955 34.18C69.6875 34.692 69.7835 35.216 69.7835 35.752C69.7835 36.32 69.6835 36.864 69.4835 37.384C69.2835 37.896 69.0035 38.356 68.6435 38.764C68.2835 39.164 67.8595 39.48 67.3715 39.712C66.8835 39.944 66.3555 40.06 65.7875 40.06ZM62.6315 35.74C62.6315 36.204 62.7075 36.648 62.8595 37.072C63.0115 37.496 63.2275 37.876 63.5075 38.212C63.7875 38.548 64.1195 38.816 64.5035 39.016C64.8955 39.208 65.3235 39.304 65.7875 39.304C66.2755 39.304 66.7115 39.204 67.0955 39.004C67.4875 38.796 67.8195 38.52 68.0915 38.176C68.3715 37.832 68.5835 37.452 68.7275 37.036C68.8715 36.612 68.9435 36.18 68.9435 35.74C68.9435 35.276 68.8675 34.832 68.7155 34.408C68.5635 33.984 68.3435 33.604 68.0555 33.268C67.7755 32.932 67.4435 32.668 67.0595 32.476C66.6755 32.284 66.2515 32.188 65.7875 32.188C65.3075 32.188 64.8715 32.288 64.4795 32.488C64.0955 32.688 63.7635 32.96 63.4835 33.304C63.2115 33.64 62.9995 34.02 62.8475 34.444C62.7035 34.868 62.6315 35.3 62.6315 35.74ZM72.5672 40V31.48H76.0952C76.4632 31.48 76.7992 31.556 77.1032 31.708C77.4152 31.86 77.6832 32.068 77.9072 32.332C78.1392 32.588 78.3152 32.876 78.4352 33.196C78.5632 33.508 78.6272 33.828 78.6272 34.156C78.6272 34.62 78.5232 35.06 78.3152 35.476C78.1072 35.884 77.8192 36.216 77.4512 36.472C77.0832 36.728 76.6552 36.856 76.1672 36.856H73.4072V40H72.5672ZM73.4072 36.112H76.1312C76.4672 36.112 76.7592 36.02 77.0072 35.836C77.2552 35.652 77.4472 35.412 77.5832 35.116C77.7192 34.82 77.7872 34.5 77.7872 34.156C77.7872 33.804 77.7072 33.484 77.5472 33.196C77.3872 32.9 77.1752 32.664 76.9112 32.488C76.6552 32.312 76.3712 32.224 76.0592 32.224H73.4072V36.112ZM87.2801 32.224H84.2441V40H83.4041V32.224H80.3681V31.48H87.2801V32.224ZM95.9283 31.48H96.6363L100.176 40H99.2883L98.1843 37.336H94.3563L93.2643 40H92.3643L95.9283 31.48ZM97.9923 36.676L96.2763 32.464L94.5363 36.676H97.9923ZM103.438 33.028V40H102.598V31.48H103.294L108.886 38.584V31.492H109.726V40H108.946L103.438 33.028ZM113.067 40V31.48H113.907V40H113.067ZM124.792 40V33.064L121.708 38.452H121.18L118.084 33.064V40H117.244V31.48H118.108L121.432 37.312L124.78 31.48H125.632V40H124.792ZM131.607 31.48H132.315L135.855 40H134.967L133.863 37.336H130.035L128.943 40H128.043L131.607 31.48ZM133.671 36.676L131.955 32.464L130.215 36.676H133.671ZM138.277 40V31.48H139.117V39.256H144.037V40H138.277ZM151.453 33.076C151.213 32.812 150.893 32.596 150.493 32.428C150.093 32.252 149.637 32.164 149.125 32.164C148.373 32.164 147.825 32.308 147.481 32.596C147.137 32.876 146.965 33.26 146.965 33.748C146.965 34.084 147.049 34.348 147.217 34.54C147.385 34.732 147.641 34.892 147.985 35.02C148.337 35.14 148.785 35.26 149.329 35.38C149.937 35.508 150.461 35.66 150.901 35.836C151.341 36.012 151.681 36.252 151.921 36.556C152.161 36.852 152.281 37.256 152.281 37.768C152.281 38.288 152.149 38.72 151.885 39.064C151.621 39.408 151.257 39.664 150.793 39.832C150.329 39.992 149.801 40.072 149.209 40.072C147.881 40.072 146.741 39.66 145.789 38.836L146.209 38.152C146.513 38.472 146.929 38.748 147.457 38.98C147.993 39.212 148.585 39.328 149.233 39.328C149.905 39.328 150.433 39.204 150.817 38.956C151.201 38.708 151.393 38.34 151.393 37.852C151.393 37.5 151.297 37.22 151.105 37.012C150.913 36.796 150.625 36.62 150.241 36.484C149.857 36.348 149.385 36.216 148.825 36.088C148.233 35.952 147.733 35.8 147.325 35.632C146.925 35.464 146.621 35.244 146.413 34.972C146.205 34.7 146.101 34.332 146.101 33.868C146.101 33.34 146.229 32.896 146.485 32.536C146.749 32.168 147.109 31.892 147.565 31.708C148.021 31.516 148.545 31.42 149.137 31.42C149.697 31.42 150.201 31.508 150.649 31.684C151.097 31.852 151.501 32.092 151.861 32.404L151.453 33.076Z" fill="white"/>
</svg>
